<?xml version="1.0" encoding="UTF-8"?>
<svg id="Layer_1" data-name="Layer 1" xmlns="http://www.w3.org/2000/svg" viewBox="0 0 508.18 512.34">
  <defs>
    <style>
      .cls-1 {
        stroke-width: 10px;
      }

      .cls-1, .cls-2, .cls-3 {
        fill: none;
        stroke: #c25239;
        stroke-linecap: round;
        stroke-linejoin: round;
      }

      .cls-2 {
        stroke-width: 15px;
      }

      .cls-3 {
        stroke-width: 12px;
      }
    </style>
  </defs>
  <g id="butt">
    <path class="cls-2" d="M257.24,319.63c.49-.63-8.51-.16-17.27,1.55-3.37,.65-7.65,1.97-9.7,2.99-1.92,1-5.86,4.14-9,7.39-3.24,3.41-7.79,8.98-9.55,12.05-.62,1.09-4.49,8.89-5.13,10.48-1.32,3.33-2.38,8.59-2.57,11.98-.2,4.3,1.35,17.85,3.39,26.25,1.74,7.01,7.17,19.94,9.07,24.01,3.03,6.29,11.22,23.05,12.57,25.53,3.22,5.84,9.57,13.42,14.34,17.87,1.98,1.79,5.75,3.62,8.02,3.54,2.26-.12,8.32-2.26,11.15-3.75,6.39-3.44,14.35-11.11,16.35-13.42,3-3.48,8.17-10.81,9.87-14.02,1.69-3.19,5.7-14.35,7.25-20.11,1.43-5.35,3.78-17.24,4.42-23.26,.45-4.34,.28-15.49-.89-23.52-.95-6-3.31-18.28-4.7-21.8-1.27-3.13-5.97-9.74-8.36-11.84-2.37-2.04-9.61-5.85-12.7-6.77-4.51-1.3-17.95-1.53-21.72-.68-6.4,1.49-18.83,8.18-22.77,11.53-3.03,2.62-7.38,8.49-9.39,12.4-.59,1.17-4.65,9.83-5.57,12.7-.92,2.89-2.15,10.42-2.11,13.13,.15,5.96,2.71,16.35,5.76,26.5,2.09,6.86,4.95,13.18,10.42,22.56,7.32,11.89,19.28,27.24,21.67,28.74,1.41,.84,3.85,.58,5.95-.64,4.13-2.45,16.8-15.43,18.52-17.65,3.82-4.98,9.24-17.33,10.79-23.97,1.32-6.04,3.56-16.36,4.06-20.47,.81-6.96,.26-18.63-.66-24.88-.58-3.92-3.5-18.58-5.14-22.03-1.36-2.78-5.85-7.3-8.14-8.42-1.43-.67-8.94-2.6-10.6-2.93-3-.56-8.6-.49-11.79,.21-3.22,.75-9.75,3.33-12.84,5.25-2.97,1.89-8.51,7.16-10.27,9.83-1.68,2.62-3.96,9.21-4.73,12.85-1.3,6.33-2.11,20.22-1.46,25.9,.6,5.03,3.67,17.02,6.25,22.22,2.24,4.44,11.64,18.7,12.77,20.53,4.2,6.89,8.31,11.88,10.01,12.1,1.15,.09,3.33-1.21,5.59-4.5,2.08-3.1,10.45-14.75,12.93-20.59,1.43-3.4,6.03-17.72,6.69-23.8,.77-7.39,.47-15.75-.8-24.98-1.66-11.51-3.04-18.22-5.25-21.19-1.48-1.94-4.37-4.01-6.69-4.39-2.92-.43-16.29,3.07-20.21,4.77-2.14,.95-5.73,3.75-7.52,5.8-1.8,2.12-4.3,6.34-5.02,9.12-1.3,5.26-1.29,17.9-.52,22.88,.83,5.28,4.76,17,6.69,22.24,1.16,3.04,6.42,14.64,8.8,17.55,1.3,1.55,3.8,3.11,5,2.89,1.19-.27,3.24-2.7,4.26-5.05,1.71-4.05,5.98-19.17,7.13-26.27,1-6.8,3.06-21.71,3.09-25.62,.02-2.45-.65-8.69-.98-11.84-.43-3.33-1.83-6.08-2.74-6.85-1.09-.88-4.61-1.34-6.56-.79-2.42,.74-8.05,4.82-10.49,7.49-2.58,2.85-4.76,7.46-5.18,9.91-.62,3.92,.41,12.11,2.26,21.18,3.53,16.77,6.72,24.96,7.26,25.29,.88-.42,2.09-4.63,2.47-6.65,2.97-16.62,4.94-32.06,5.31-40.43,.09-2.89-.16-7.57-.93-8.94-.34-.57-1.81-.35-2.68,.64-2.01,2.35-5.12,11.25-5.71,16.28-.53,4.63-.28,12.49-.34,13.54l-.5-.71"/>
  </g>
  <g id="Butt_Copy_3" data-name="Butt Copy 3">
    <path class="cls-2" d="M254.19,310.83c-.44,.04-.75,.08-.92,.12-1.51,.38-14.26,2.93-18.54,4.48-2.36,.87-8.57,3.85-11.04,5.58-2.87,2.02-7.89,6.69-10.84,9.93-2.58,2.88-7.33,9.57-8.82,12.23-1.77,3.2-4.34,10.63-5.04,14.35-1.35,7.45-.99,22.61,.39,30.33,1.37,7.58,4.94,20.02,7.25,26.88,2.1,6.17,6.48,15.75,11.64,25.11,5.91,10.46,9.48,16.33,12.16,19.35,2.44,2.73,8.11,7.14,10.75,8.69,2.61,1.51,6.45,3.02,8.8,3.29,2.16,.22,7.18-.55,8.6-.81,.43-.06,.99,.12,1.3-.19,.04-.05-.06-.23-.3-.52"/>
    <path class="cls-2" d="M253.99,310.83c.45,.04,.76,.08,.92,.12,1.51,.38,14.27,2.93,18.54,4.48,2.36,.87,8.58,3.85,11.04,5.58,2.87,2.02,7.89,6.69,10.84,9.93,2.59,2.88,7.34,9.57,8.83,12.23,1.76,3.2,4.34,10.63,5.04,14.35,1.34,7.45,.98,22.61-.39,30.33-1.37,7.58-4.95,20.02-7.26,26.88-2.09,6.17-6.47,15.75-11.64,25.11-5.9,10.46-9.48,16.33-12.15,19.35-2.44,2.73-8.11,7.14-10.75,8.69-2.61,1.51-6.46,3.02-8.8,3.29-2.16,.22-7.18-.55-8.6-.81-.44-.06-1,.12-1.3-.19-.05-.05,.05-.23,.3-.52"/>
  </g>
  <g id="joint">
    <path class="cls-2" d="M271.12,283.24c-1.06-.85-9.05-2.79-15.76-2.68-3.06,.06-9.48,.88-12.14,1.59-2.83,.78-7.66,3.05-9.94,5.1-1.46,1.33-3.93,5.28-4.32,6.99-.34,1.71,.45,4.69,1.66,5.97,1.15,1.16,5.01,3.48,7.21,4.41,2.65,1.09,8.15,2.47,11.35,2.76,3.28,.27,10.08-.4,13.35-1.38,3.12-.96,7.76-3.47,9.37-4.66,1.52-1.17,4.35-4.05,5.27-5.84,.68-1.34,.77-3.53,.52-4.33-.26-.74-1.11-1.79-1.95-2.41-1.19-.82-5.62-2.31-8.89-2.65-3.84-.37-10.63-.14-13.1,.24-2.05,.32-6.92,1.46-9.59,2.48-3.18,1.23-7.57,4.42-8.63,5.91-.63,.93-.98,2.67-.68,3.4,.31,.7,1.84,1.81,3.1,2.15,1.53,.37,6.6,.43,10.09-.13,3.62-.61,10.55-2.68,13.54-4.04,2.09-.97,4.55-2.92,4.81-3.58,.37-1.16-1.72-2.55-3.95-2.46-1.53,.08-6.21,1.31-9.18,2.91-2.49,1.37-5.09,3.69-5.37,4.26-.29,.67,.37,1.44,1.43,1.58,2.5,.29,10.19-1.56,13.36-2.79,1.21-.48,3.76-1.6,4.01-1.75,.07-.04,.14-.11,.23-.2"/>
  </g>
  <g id="Joint_Copy_6" data-name="Joint Copy 6">
    <path class="cls-2" d="M241.76,312.54c-.49,.01-2.59,.03-3.07,0-1.12-.08-4.51-1.79-6.16-3.12-1.8-1.49-4.68-5.23-5.77-7.59-1.2-2.71-1.93-8.06-1.06-10.86,.86-2.63,4.94-8.38,7.09-10.49,2.19-2.11,6.1-4.35,9.02-5.26,1.96-.57,12.46-1.09,13.68-1.21"/>
    <path class="cls-2" d="M266.42,312.54c.49,.01,2.59,.03,3.07,0,1.12-.08,4.52-1.79,6.16-3.12,1.81-1.49,4.68-5.23,5.77-7.59,1.21-2.71,1.94-8.06,1.07-10.86-.86-2.63-4.94-8.38-7.09-10.49-2.19-2.11-6.11-4.35-9.03-5.26-1.95-.57-12.45-1.09-13.68-1.21"/>
    <path class="cls-2" d="M239.66,313.7c.54,.13,1.11,.16,2.6,.1,2.26-.09,14.85,.11,15.11,.11,.57-.02,7.33-.74,7.59-.81,.06-.02,.15-.06,.27-.13"/>
  </g>
  <g id="joint-2" data-name="joint">
    <path class="cls-2" d="M269.51,223.45c-.55-.03-1.8,.01-2.29,0-6.64-.26-13.43-.07-18.02,.71-2.22,.38-7.59,1.67-10.72,2.84-1.39,.52-4.14,2.45-5.02,3.52-.83,1.06-2.56,4.91-2.74,7.02-.2,2.98,1.41,8.92,3.21,12.4,1.67,3.18,5.04,8.58,7.33,11.29,2.39,2.77,6.68,6.03,9.31,6.83,1.01,.28,3.2,.26,4.3-.08,1.18-.4,4.79-2.64,6.96-4.92,2.06-2.19,6.9-11.71,8.24-15.8,1.57-4.97,4.15-22.41,4.17-22.71-.74-.27-19.7,5.18-22.44,6.16-3.55,1.29-7.95,3.56-9.5,5.02-1.58,1.55-3.37,5.88-3.21,8.3,.18,2.13,2.18,6.01,4.21,8.06,3.42,3.41,10.33,8.74,11.81,8.43,.72-.2,2.33-1.91,3.14-4.11,1.11-3.06,4.92-19.32,5-21.99,.04-1.8-.91-3.05-1.7-3.2-.77-.07-4.26,1.48-6.98,3.48-2.65,1.98-6.75,6.2-7.7,8.09-.87,1.8-.4,5.17,.69,6.16,1.2,1.02,4.47,.76,5.71-.57,2.3-2.55,3.19-9.24,2.94-10.23l-3.31,5.3"/>
  </g>
  <g id="Joint_Copy_5" data-name="Joint Copy 5">
    <path class="cls-2" d="M244.83,273.99c-.45-.04-4.15-1.34-7.88-6.58-2.58-3.69-8.25-13.36-10.27-18.77-1.02-2.79-2.27-7.55-2.53-9.9-.22-2.1-.03-7.58,.53-9.44,.67-2.09,3.27-5.72,5.15-7.16,1.58-1.17,6.45-3.43,9.13-4.11,5.62-1.39,16.96-1.64,17.83-1.79,.2-.03,.42-.23,.66-.59,.09-.14,.35-.39,.79-.76"/>
    <path class="cls-2" d="M263.35,273.99c.46-.04,4.16-1.34,7.88-6.58,2.58-3.69,8.26-13.36,10.27-18.77,1.03-2.79,2.27-7.55,2.53-9.9,.22-2.1,.04-7.58-.52-9.44-.67-2.09-3.27-5.72-5.16-7.16-1.58-1.17-6.45-3.43-9.13-4.11-5.61-1.39-16.95-1.64-17.83-1.79-.19-.03-.41-.23-.66-.59-.08-.14-.34-.39-.78-.76"/>
    <path class="cls-2" d="M245.28,274.53c.73,.24,2.39,.4,5.09,.46,2.76,.07,11.85-.28,11.91-.3,.11-.04,.23-.14,.37-.3"/>
  </g>
  <g id="Bottom_legs_Copy_14" data-name="Bottom legs Copy 14">
    <path class="cls-2" d="M224.8,303.13c-1.58,.77-5.77,3.26-6.78,4.2-1.71,1.63-4.19,5.66-4.33,7.14-.05,.77,.35,1.9,.8,2.26,2.15,1.5,8.28-2.86,10.39-4.88,.78-.76,2.47-2.43,2.9-2.92,.16-.19,.4-.5,.7-.91"/>
    <path class="cls-2" d="M283.39,303.13c1.57,.77,5.77,3.26,6.77,4.2,1.72,1.63,4.2,5.66,4.34,7.14,.04,.77-.36,1.9-.81,2.26-2.15,1.5-8.28-2.86-10.38-4.88-.79-.76-2.48-2.43-2.91-2.92-.16-.19-.39-.5-.69-.91"/>
  </g>
  <g id="Bottom_legs_Copy_13" data-name="Bottom legs Copy 13">
    <path class="cls-2" d="M211.59,317.09s-.07,0-.1,.01c-.49,.32-7.47,5.41-9.91,7.2-16.22,11.96-42.28,29.91-45.67,32.57-.27,.21-.42,.35-.45,.42"/>
    <path class="cls-2" d="M296.6,317.09s.07,0,.09,.01c.5,.32,7.48,5.41,9.91,7.2,16.22,11.96,42.28,29.91,45.67,32.57,.27,.21,.42,.35,.45,.42"/>
  </g>
  <g id="Bottom_legs_Copy_12" data-name="Bottom legs Copy 12">
    <path class="cls-3" d="M149.99,361.84c-.17,.74-.34,1.49-.52,2.23-2.65,12.65-7.87,37.94-11.21,52.33-1.69,6.91-4.15,16.68-4.92,19.54-.08,.26-.18,.6-.31,1.04"/>
    <path class="cls-3" d="M358.19,361.84c.17,.74,.35,1.49,.52,2.23,2.66,12.65,7.87,37.94,11.21,52.33,1.69,6.91,4.16,16.68,4.93,19.54,.07,.26,.17,.6,.3,1.04"/>
  </g>
  <g id="Bottom_legs_Copy_11" data-name="Bottom legs Copy 11">
    <path class="cls-1" d="M129.87,443.41c-.16,.34-.64,1.41-.96,2.14-3.32,7.32-34.54,55.86-38.09,60.49-.18,.24-.52,.68-1.01,1.3"/>
    <path class="cls-1" d="M378.32,443.41c.15,.34,.63,1.41,.96,2.14,3.31,7.32,34.53,55.86,38.08,60.49,.19,.24,.53,.68,1.02,1.3"/>
  </g>
  <g id="Mid_legs_Copy_14" data-name="Mid legs Copy 14">
    <path class="cls-2" d="M281.27,280.5c.44-1.41,2.92-4.29,4.73-5.42,1.59-.96,5.38-2.16,6.92-2.18,1.8,0,4.19,1.15,4.68,2.15,.39,.83,.04,3.1-.54,3.88-1.97,2.48-11.18,4.05-11.54,4.09-.34,.04-.9,.07-1.68,.11"/>
    <path class="cls-2" d="M226.91,280.5c-.43-1.41-2.91-4.29-4.72-5.42-1.6-.96-5.39-2.16-6.92-2.18-1.81,0-4.19,1.15-4.69,2.15-.38,.83-.04,3.1,.55,3.88,1.97,2.48,11.17,4.05,11.54,4.09,.34,.04,.9,.07,1.68,.11"/>
  </g>
  <g id="Mid_legs_Copy_13" data-name="Mid legs Copy 13">
    <path class="cls-2" d="M298.01,274.4c.28-.23,.54-.43,.78-.61,12.13-8.21,37.42-24.99,50.58-33.56,1.29-.8,4.58-2.68,4.82-2.89,.23-.21,.16-.4-.21-.58"/>
    <path class="cls-2" d="M210.18,274.4c-.28-.23-.54-.43-.79-.61-12.12-8.21-37.41-24.99-50.58-33.56-1.28-.8-4.57-2.68-4.81-2.89-.23-.21-.16-.4,.21-.58"/>
  </g>
  <g id="Mid_legs_Copy_12" data-name="Mid legs Copy 12">
    <path class="cls-3" d="M361.67,235.3c1.4,.36,17.9,4.11,24.6,5.63,12.23,2.84,36.44,8.34,43.43,9.39,.31,.05,.76,.12,1.35,.22"/>
    <path class="cls-3" d="M146.51,235.3c-1.39,.36-17.89,4.11-24.6,5.63-12.23,2.84-36.43,8.34-43.43,9.39-.31,.05-.76,.12-1.34,.22"/>
  </g>
  <g id="Mid_legs_Copy_11" data-name="Mid legs Copy 11">
    <path class="cls-1" d="M437.18,250.53c.28-.03,2.17-.41,3.64-.75,23.1-5.63,38.54-9.83,53.05-13.25,6.19-1.43,7.96-1.78,8.91-1.91,.21-.03,.35-.02,.4,0"/>
    <path class="cls-1" d="M71.01,250.53c-.29-.03-2.17-.41-3.64-.75-23.11-5.63-38.55-9.83-53.06-13.25-6.19-1.43-7.96-1.78-8.91-1.91-.21-.03-.34-.02-.4,0"/>
  </g>
  <g id="Top_legs_Copy_14" data-name="Top legs Copy 14">
    <path class="cls-2" d="M205.64,235.68c.71-1.17,3.75-4.11,5.76-5.5,2.3-1.56,6.94-3.04,8.61-2.64,1.6,.46,2.12,3.1,1.3,4.6-.67,1.16-2.69,2.91-4.34,3.79-4.75,2.44-11.37,1.54-11.57,1.25-.1-.15-.12-.56-.07-1.23"/>
    <path class="cls-2" d="M302.54,235.68c-.7-1.17-3.75-4.11-5.75-5.5-2.31-1.56-6.94-3.04-8.61-2.64-1.6,.46-2.12,3.1-1.3,4.6,.67,1.16,2.69,2.91,4.33,3.79,4.76,2.44,11.37,1.54,11.57,1.25,.1-.15,.12-.56,.08-1.23"/>
  </g>
  <g id="Top_legs_Copy_13" data-name="Top legs Copy 13">
    <path class="cls-2" d="M303.77,236.89c.1-.5,.34-1.15,1.04-2.73,2.76-6.29,13.1-28.36,22.81-47.94,4.47-8.72,11.36-20.48,11.5-20.74,.15-.27,.28-.54,.39-.83,.03-.08-.08,.16-.11,.24"/>
    <path class="cls-2" d="M204.42,236.89c-.1-.5-.34-1.15-1.05-2.73-2.76-6.29-13.09-28.36-22.81-47.94-4.47-8.72-11.36-20.48-11.5-20.74-.14-.27-.27-.54-.39-.83-.03-.08,.08,.16,.12,.24"/>
  </g>
  <g id="Top_legs_Copy_12" data-name="Top legs Copy 12">
    <path class="cls-3" d="M344.98,158.29l-.17,.6c.16-.18,.93-.9,1.53-1.47,8.36-7.87,50.22-41.25,50.68-41.58,.22-.16,.56-.37,1-.63"/>
    <path class="cls-3" d="M163.21,158.29l.17,.6c-.17-.18-.93-.9-1.53-1.47-8.36-7.87-50.22-41.25-50.69-41.58-.22-.16-.55-.37-1-.63"/>
  </g>
  <g id="Top_legs_Copy_11" data-name="Top legs Copy 11">
    <path class="cls-1" d="M402.43,112.05c.61-.78,1.02-1.32,1.25-1.63,16.41-22.26,41.04-54.33,43.51-56.76,.26-.25,.68-.63,1.29-1.13"/>
    <path class="cls-1" d="M105.76,112.05c-.61-.78-1.03-1.32-1.26-1.63-16.41-22.26-41.04-54.33-43.51-56.76-.25-.25-.68-.63-1.28-1.13"/>
  </g>
  <g id="pincers">
    <path class="cls-2" d="M239.59,120.48c-.06,.49-8.69,12.3-9.5,14.5-.06,.18-.12,.43-.16,.77l12.31-10.37c.05,.28-5.2,6.56-6.21,7.96-1.35,1.86-2.18,3.25-2.36,3.84"/>
    <path class="cls-2" d="M269.26,124.29l1.66,11.23,.32-12.37c2.56,5.03,10.39,16.22,10.44,16.38,.03,.07-.23-.13-.75-.61"/>
  </g>
  <g id="Pincers_Copy_3" data-name="Pincers Copy 3">
    <path class="cls-3" d="M213.55,168.08c.16-.68,.26-1.15,.31-1.41,.7-3.94,3.23-13.99,4.68-18.09,1.47-4.15,5.97-14.35,8.12-18.22,2.49-4.44,9.14-12.83,13.85-16,2.14-1.41,3.65-1.7,4.27-1.66,.63,1.44-.66,6.43-.9,8.06-.32,2.24,.29,3.52,.71,3.64,1.89,.56,2.7,1.11,2.83,1.9,.03,.28-.04,1.24-.18,1.71-.28,.98-.94,2.6-1.89,4.74-.14,.31-.24,.54-.3,.69"/>
    <path class="cls-3" d="M294.95,168.08c-.16-.68-.27-1.15-.32-1.41-.7-3.94-3.23-13.99-4.67-18.09-1.48-4.15-5.97-14.35-8.13-18.22-2.49-4.44-9.13-12.83-13.84-16-2.14-1.41-3.65-1.7-4.27-1.66-.64,1.44,.66,6.43,.9,8.06,.32,2.24-.29,3.52-.71,3.64-1.89,.56-2.7,1.11-2.83,1.9-.03,.28,.04,1.24,.17,1.71,.29,.98,.95,2.6,1.9,4.74,.14,.31,.24,.54,.3,.69"/>
    <path class="cls-2" d="M248.28,133.53c-.05,.13-2.99,1.19-4.17,1.71-4.31,1.89-15,8.17-18.32,11.45-2.9,2.93-6.25,7.28-7.37,9.74-1.02,2.3-2,5.23-2.25,6-.09,.27-.26,.76-.51,1.48"/>
    <path class="cls-2" d="M260.22,133.53c.05,.13,2.99,1.19,4.17,1.71,4.3,1.89,14.99,8.17,18.31,11.45,2.91,2.93,6.26,7.28,7.38,9.74,1.01,2.3,2,5.23,2.25,6,.08,.27,.25,.76,.5,1.48"/>
  </g>
  <g id="head">
    <path class="cls-2" d="M265.46,142.08c-3.42,.17-13.04-.19-13.69-.19-4.25,.08-10.85,2.29-14.26,4.39-3,1.9-7.91,6.71-9.94,9.53-1.86,2.63-4.7,8.53-5.61,11.87-.88,3.35-1.42,9.34-1.2,12.88,.26,3.44,1.94,7.82,4.04,11.05,2.07,3.13,7.34,9.67,9.37,11.51,2.24,1.99,7.28,4.36,10.02,5.04,3.26,.78,8.64,.95,12.05,.49,2.82-.4,10.9-2.41,14.18-3.83,.67-.29,5.76-3.08,7.21-4.17,2.11-1.62,5.33-5.6,6.19-7.71,1.63-4.16,2.03-15.29,1.43-20.88-.51-4.53-3.51-12.84-6.26-16.88-1.46-2.13-4.28-5.23-6.21-6.75-2.42-1.84-7.59-3.86-10.64-4.06-2.79-.12-7.45,.39-10.21,1.34-3.1,1.11-8.51,4.48-12.01,7.66-3.08,2.84-7.38,8.5-8.68,11.44-1.26,3-1.31,8.87-.04,11.82,1.14,2.57,6.06,8.76,8.14,10.84,2.39,2.35,8.56,6.43,10.79,7.08,2.61,.7,8.97-.34,12.61-2.08,1.52-.76,5.38-3.67,7.04-5.37,1.59-1.65,4.27-5.6,5.16-7.59,.9-2.08,1.84-6.66,1.79-8.93-.07-2.37-1.25-6.99-2.4-9.4-1.32-2.69-4.99-7.55-7.24-9.27-2.28-1.7-7.5-4.03-9.97-4.37-2.91-.36-7.99,.71-10.55,2.2-2.47,1.48-6.58,5.49-8.42,8.16-1.79,2.66-4.33,8.7-5.08,11.99-.7,3.2-.96,9.34-.55,12.17,.42,2.74,2.21,7.45,3.48,9.41,1.37,2.05,5.17,5.16,7.36,6.06,2.16,.86,6.74,1.52,9.22,1.39,2.5-.16,7.5-1.55,9.86-2.84,2.25-1.26,6.4-5.07,8.1-7.27,1.43-1.89,3.86-6.79,4.51-8.77,.93-2.93,1.48-8.64,1.1-11.08-.47-2.72-2.6-7.02-4.32-8.71-1.72-1.63-6.21-3.77-8.61-4.1-2.48-.29-7.39,.73-9.73,2.05-2.3,1.33-6.41,5.4-7.83,7.73-1.38,2.35-3.99,8.83-4.5,11.82-.54,3.35-.52,8.65,.36,11.36,.9,2.66,3.98,6.29,5.99,7.22,1.88,.82,6.06,.51,8.25-.58,2.49-1.29,6.55-5.6,8.02-8.7,1.36-2.98,2.45-9.22,2.12-12-.34-2.51-2.93-6.88-4.89-8.48-1.99-1.57-6.52-2.86-8.86-2.54-2.27,.36-6.35,2.78-7.61,4.53-1.21,1.78-1.5,5.75-.69,7.75,.88,2.02,4.12,4.93,6.4,5.64,2.13,.59,7.14-.52,9.34-2.06,2.1-1.53,5.3-5.75,5.99-7.79,.73-2.33,.16-5.72-1.18-6.77-1.34-.97-4.75-.4-6.92,1.01-1.61,1.1-4.56,5.78-4.72,7.76-.08,1.75,1.84,3.33,3.17,3.07,1.11-.27,4.15-2.69,5.24-4.3,2.29-3.43,1.69-6.74,.84-7.19-1.29,.11-3.96,2.83-4.74,5.67-.38,1.43-.14,2.89,.42,3.91l1.23,.15c2.47-2.14,.88-6.04,.53-6.41-.13-.13-.42-.37-.88-.72"/>
  </g>
  <g id="Head_Copy_3" data-name="Head Copy 3">
    <path class="cls-2" d="M248.71,216.8c-.37-.04-6.47-.07-8.19-.34-3.66-.64-10.17-4.52-13.39-7.72-1.77-1.79-5.31-6.2-6.9-8.92-1.69-2.93-3.64-8.01-4.35-10.76-1.42-5.6-2.16-17.83-1.13-23.29,.52-2.72,2.19-7.65,3.33-9.98,1.19-2.36,4.36-6.93,6.14-8.88,1.92-2.08,6.2-5.62,8.29-6.94,5.19-3.18,12.49-4.03,13.51-4.08,.23-.01,.59-.02,1.09-.02"/>
    <path class="cls-2" d="M259.79,216.8c.37-.04,6.47-.07,8.19-.34,3.66-.64,10.16-4.52,13.38-7.72,1.78-1.79,5.32-6.2,6.91-8.92,1.68-2.93,3.63-8.01,4.35-10.76,1.41-5.6,2.15-17.83,1.13-23.29-.53-2.72-2.19-7.65-3.34-9.98-1.18-2.36-4.35-6.93-6.13-8.88-1.92-2.08-6.2-5.62-8.3-6.94-5.18-3.18-12.49-4.03-13.5-4.08-.23-.01-.6-.02-1.1-.02"/>
    <path class="cls-2" d="M237.29,136.79c.78-.3,1.71-.69,2.17-.82,3.27-.91,13.9-1.85,20.18-1.3,.76,.06,2.07,.07,2.32,.07"/>
    <path class="cls-2" d="M271.21,136.79c-.78-.3-1.72-.69-2.17-.82-3.28-.91-13.91-1.85-20.18-1.3-.76,.06-2.07,.07-2.32,.07"/>
    <path class="cls-2" d="M249.39,217.29c.63-.29,7.17-.56,8.01-.62,1.4-.11,2.55-.24,3.47-.37,.35-.06,.56-.13,.63-.21"/>
  </g>
  <g id="Feelers_Copy_6" data-name="Feelers Copy 6">
    <path class="cls-2" d="M281.86,159.2c.61-.93,1.92-2.82,2.86-4.08,6.99-9.38,41.45-51.15,45.62-55.72,1.44-1.58,2.85-3.02,3.95-4.14,.21-.22,.34-.35,.37-.39"/>
    <path class="cls-2" d="M226.33,159.2c-.62-.93-1.93-2.82-2.87-4.08-6.99-9.38-41.45-51.15-45.62-55.72-1.44-1.58-2.85-3.02-3.94-4.14-.22-.22-.35-.35-.38-.39"/>
  </g>
  <g id="Feelers_Copy_5" data-name="Feelers Copy 5">
    <path class="cls-3" d="M333.08,95.24c-.07-1.38-.12-2.92-.1-4.35,.1-5.64,2.26-23.54,2.76-26.81,1.1-7.03,4.78-20.11,7.47-26.38,2.79-6.46,8.87-16.75,12.08-21.19,2.33-3.11,5.34-6.87,7.16-8.77,.45-.46,.9-.93,1.35-1.39,.13-.14,.26-.26,.38-.35"/>
    <path class="cls-3" d="M175.1,95.24c.08-1.38,.12-2.92,.1-4.35-.09-5.64-2.25-23.54-2.76-26.81-1.1-7.03-4.78-20.11-7.47-26.38-2.79-6.46-8.86-16.75-12.08-21.19-2.32-3.11-5.34-6.87-7.16-8.77-.45-.46-.9-.93-1.34-1.39-.14-.14-.27-.26-.39-.35"/>
  </g>
</svg>