<?xml version="1.0" encoding="UTF-8"?>
<svg id="Layer_2" data-name="Layer 2" xmlns="http://www.w3.org/2000/svg" viewBox="0 0 1920 1080">
  <defs>
    <style>
      .cls-1 {
        fill: #fff;
      }
    </style>
  </defs>
  <path id="AntBorder" class="cls-1" d="M1920,1080H0V0H1920V1080Zm-1735.19-60.19c.29,.37,.57,.74,.86,1.12,6.29-10.61,14.68-5.74,22.54-3.11,5.36-7.14,14.46-6.68,19.29,.72,6.92-5.97,15.62-2.84,23.42-4.24,2.27-.41,5.09,1.29,7.89-.18,1.33-.69,3.2-.3,4.8-.52,2.97-.41,5.91-1.06,8.89-1.34,2.47-.24,5.13-.67,7.44-.03,5.58,1.54,10.99,3.65,16.47,5.53,3.63-9.01,10.41-12.03,16.64-6.3,4.1,3.77,6.1,2.4,9.21-.22,3.84-3.23,7.54-3.07,11.56,.2,2.91,2.36,5.8,4.74,8.04,6.58,.15-.32,.77-1.87,1.53-3.35,3.32-6.46,11.96-5.83,17.8-3.43,1.64,.67,4.18,1.05,5.51,.25,6.26-3.76,16.27-1.92,19.91,3.01,4.16-.58,7.83-2.06,10.99-1.32,5.23,1.23,10.13,3.88,13.97,5.45,5.11-1.67,9.38-3.94,13.81-4.28,4.41-.34,8.97,1.25,14.51,2.17,5.07-4.39,9.37-3.54,14.29,3.84,8.19,.49,16.21-4.07,22.84-.21,4.52-1.6,8-3.42,11.66-3.98,5.08-.77,10.35-.2,15.45-.9,6.54-.9,13.04,2.84,19.53-.13,.33-.15,.93,.25,1.39,.44,5,2.02,9.96,4.17,15.04,5.96,1.03,.36,2.53-.72,3.84-.99,3.23-.67,7.43-2.83,9.52-1.56,4.03,2.44,6.87,1.6,10.29-.24,4.45-2.4,8.16-1.69,10.92,2.57,1.81,2.78,3.51,3.06,6.49,1.97,2.95-1.09,6.43-2.21,9.34-1.64,9.32,1.83,18.38,3.1,27.22-1.83,1.32-.74,3.16-.6,4.77-.77,3.77-.4,7.63-.36,11.29-1.21,3.57-.83,6.61-.12,8.11,2.85,1.94,3.85,5,4.7,8.64,5.33,3.34-6.05,7.39-7.34,14.37-5.63,11.13,2.72,22.78,3.32,34.2,4.88,1.66,.23,3.98,1.64,4.81,.99,4.02-3.15,7.63-1.36,11.47,.04,1.51,.55,3.28,.83,4.86,.63,6.36-.83,12.71-2.72,19.03-2.62,4.71,.07,9.31,1.71,13.73-1.18,.35-.23,1.11-.25,1.46-.03,4.78,3.01,9.77,1.67,14.83,1.06,1.78-.22,3.7,1.02,5.59,1.32,1.34,.21,3.18,.53,4.07-.14,7.4-5.65,10.44-5.29,15.78,1.52h9.8c1.95-4.47,5.56-7.14,11.4-5.49,.67,.19,1.56-.16,2.28-.43,5.04-1.9,9.4-1.65,12.03,3.88,6.85-3.92,13.88-3.57,21.27-3.19,5.06,.26,10.04-1.41,13.54,3.78,.11,.16,.87,0,1.26-.18,3.94-1.8,8.91,.73,12.46-3.07,.76-.81,2.43-1.01,3.7-1.04,4.49-.1,8.98,.08,13.47-.03,2.92-.07,5.83-.57,8.75-.66,1.62-.05,3.73,1.09,4.81,.41,4.8-3.06,9.45-5.98,15.42-3.32,.09,.04,.28-.2,.43-.22,5.56-.75,11.12-2.03,16.69-2.08,4.82-.04,9.33,1.38,14.1,3.5,4.01,1.79,8.91,3.36,13.48,4.84,.66,.21,1.63-.22,2.35-.57,5.31-2.59,10.86-3.01,16.6-1.96,2.23,.41,4.78,1.44,6.7,.77,3.67-1.28,6.21,.2,8.52,2.3,3,2.73,5.73,2.64,9.1,.7,1.71-.98,4.42-1.91,5.93-1.23,4.09,1.85,9.7,.97,12.09,6.4,.35,.8,3.47,1.36,4.47,.72,4.28-2.73,7.8-.86,11.34,1.27,3.48-4.82,6.47-5.13,12.32-4.11,4.49,.78,9.4-.98,13.62,2.11,.15,.11,.6-.25,.91-.26,2.78-.16,5.55-.28,8.33-.43,2.34-.13,4.67-.43,7.01-.4,2.97,.03,6.77-.78,8.72,.72,4.09,3.13,7.76,2.52,12.2,1.72,3.28-.59,6.97,.1,10.28,.96,1.81,.47,3.06,2.77,4.85,3.72,4.61,2.43,9.37,4.57,13.58,6.59-.94-3.44,.98-6.71,4.46-8.66,3.67-2.06,7.18-.9,10.52,1.79,2.01,1.62,4.73,2.95,7.26,3.23,5.73,.64,12.06-3.03,17.1,2.56,.07,.08,.6-.39,.87-.34,5.9,.99,11.79,2.07,17.71,2.99,.94,.15,2.01-.26,2.96-.58,4.36-1.46,8.64-3.98,13.06-4.27,7.8-.5,15.54-.09,23.18-2.84,2.42-.87,5.97,1.29,8.97,2.21,1.48,.45,3.02,1.96,4.28,1.71,5.58-1.11,11.07-3.85,16.57-3.81,8.65,.06,17.65-4.55,26.01,1.27,2.29-6.7,7.87-9.42,12.8-5.44,5.25,4.25,9.58,2.3,14.29-.18,3.38-1.78,7.26-2.17,9.52,.8,2.97,3.92,6.64,4.17,10.94,4.38,.17-4.97,2.54-8.31,7.32-9.23,5.46-1.05,8.41,2.41,9.66,5.54,5.23-1.06,9.8-1.93,14.35-2.95,.72-.16,1.31-.97,1.93-1.51,3.24-2.81,6.84-2.75,10.66-1.45,.95,.32,2.07,.4,3.08,.29,4.63-.51,8.43,.69,10.76,5.01,9.11-6.31,15.67-6.72,22.22-1.48,4.78-5.97,12.28-7.05,16.74,.83,1.72,3.04,3.44,1.17,5.54-.04,5.36-3.1,11.07-4.54,17.25-2.15,1.6,.62,3.51,.98,5.19,.76,6.76-.89,13.4-.75,19.74,1.96,3.76,1.61,7.01,2.19,11.27,.47,2.84-1.15,6.99,.46,10.4,1.39,3.24,.88,6.54,2.08,9.35,3.87,3.83,2.43,6.24,.22,9.14-1.56,1.08-.66,2.94-.89,4.09-.44,4.45,1.76,8.73,3.02,13.71,1.93,1.61-.35,3.78,1.88,5.69,2.94,.84,.47,1.71,1.43,2.5,1.37,7.16-.56,15.4,2.95,20.64-5.35,.57-.89,2.33-1.3,3.59-1.44,7.97-.86,15.88-1.81,23.7,1.57,2.3,.99,6.03,1.04,8.08-.18,7.91-4.71,15.38-.71,22.98,.32,3.04,.41,5.93,1.8,8.96,2.32,4.31,.74,9.31,2.68,12.89,1.26,6.59-2.6,10.32-.23,13.68,4.16,3.23-.19,6.19-.2,9.08-.59,2.02-.27,4.45-.51,5.86-1.73,7.95-6.91,19.17-4.3,22.8,5.73,2.12-1.88,4.86-3.33,6.14-5.61,5.07-9.01,10.81-9.76,16.37-2.9,4.02,.31,8.13-.63,9.88,.99,4.57,4.23,8.03,1.93,12-.27,2.72-1.51,5.45-3.44,8.4-3.98,6.14-1.12,12.43-1.34,18.64-2.14,4.05-.53,8.29-2.64,12.04-1.93,9.15,1.75,18.07,4.73,27.27,7.27,2.18-2.81,5.1-5.01,9.63-3.71,.93,.27,2.25-.05,3.14-.54,4.83-2.64,9.5-3.73,14,1.39,1.92-7.11,8.1-7.19,13.01-9.03-.35-5.86,3.18-9.47,8.74-9.57,1.61-.03,3.96-.65,4.66-1.8,2.63-4.34,6.03-6.1,12.26-4-1.29-3.31-1.91-5.6-3.01-7.62-2.68-4.95-1.66-9.06,3.07-12.58,1.27-.95,2.03-2.59,3.1-4.01-9.56-4.03-10.64-7.27-6.27-15.59,.59-1.12,0-3.78-.99-4.65-4.59-4-5.27-9.05-1.36-13.56,.89-1.03,1.77-2.08,2.96-3.47-9.68-3.05-7.07-12.64-11.03-18.56-.48-.71,.44-2.57,1.02-3.75,2.42-4.95,3.32-10.14,2.36-15.54-.29-1.64-.9-3.72-2.1-4.61-5.4-4-6.22-9.12-5.33-15.39,.71-4.98,2.92-10.35-1.45-15.08-.71-.76-.33-2.61-.31-3.96,.08-5.83-.08-11.7,.48-17.49,.24-2.49,1.84-4.96,3.22-7.19,.57-.92,2.21-1.17,2.1-1.11-3.08-4.07-5.86-6.66-7.18-9.85-.87-2.1,.34-5.08,.66-7.66,.78-6.28,.87-12.81,5.13-18.04,2.54-3.1,1.42-5.27-1.11-7.47-.71-.62-1.7-1.47-1.71-2.23-.06-6.56,0-13.12,.18-19.67,.09-3.12,.5-6.23,.85-9.33,.29-2.53,.16-5.31,1.21-7.5,1.66-3.46,4.16-6.53,6.27-9.71-6.08-4.34-7.69-6.78-6.72-10.81,1.75-7.28,4.91-14.42,5.39-21.75,.41-6.37,2.37-10.76,6.32-15.61,3.37-4.15,3.8-10.04,2.78-16-.82-4.81,1.12-10.03,.79-15-.39-5.85,.42-10.27,6.4-12.9,2.76-1.22,2.96-5.72,.58-7.61-4.07-3.22-5-8.6-2.99-11.63,4.72-7.16-2.21-15.56,3.49-22.1,.14-.16-.34-.84-.51-1.29-2.77-7.45-2.47-8.44,2.74-12.19-.88-3.99-3.01-7.86-2.09-10.76,1.66-5.19,1.01-9.84,.13-14.83-.83-4.74-1.75-9.69,3.84-12.73,.82-.45,1.53-2.63,1.15-3.5-2-4.55-1.57-8.6,1.76-12.36-6.43-4.36-4.95-10.54-4.35-16.58,.28-2.85,.01-5.76,.29-8.61,.26-2.63,.04-6.05,1.57-7.67,3.23-3.43,2.58-7.59,3.46-11.42,.28-1.2-.67-3.27-1.72-4.08-3.16-2.42-4.19-5.43-4.36-9.28-.26-5.92,1.46-11.87-.97-17.84-1.05-2.58-.11-5.95-.22-8.96-.08-2.16,.02-4.46-.68-6.44-1.15-3.26-1.9-6.19-.24-9.6,.75-1.53,.94-4.84,.08-5.43-7.79-5.31-2.1-13.35-3.73-19.88-1.1-4.39,1.52-10.18-.83-15.59-.8-1.83,.52-4.74,1.27-7.03,.35-1.06,1.71-1.77,2.52-2.71,2.5-2.88,.85-10.44-2.11-13.04-1.98-1.75-4.42-4.77-4.15-6.9,.52-4.15,2.41-8.3,4.47-12.04,1.77-3.23,3.61-5.58,.18-9.06-1.4-1.42-1.55-4.58-1.4-6.89,.34-5.37,2.38-10.9,1.54-16-1-6.09,1.29-9.32,5.95-11.95-6.06-6.51-6.5-15.79-1.07-23.47,2.55-3.62,5.15-7.54,1.23-12.16-.83-.98-.41-3.02-.58-4.71-7-3.88-7.55-6.92-5.08-13.94,1.01-2.88,1.8-6.62,.8-9.25-1.71-4.46-.93-7.75,1.87-11.09,.81-.98,2.31-2.2,2.14-3.04-.72-3.6-1.64-7.23-3.08-10.6-1.78-4.19-1.08-7.66,2.95-10.77-5.15-5.63-5.97-9.58,.39-16.42-6.7-5.74-3.02-13.87-4.42-20.94-1.54-7.76,4.03-14,5.8-20.64-1.06-2.04-2.58-4.16-3.29-6.52-1.04-3.42-1.67-6.98-2.16-10.53-.77-5.56-1.24-11.17-1.94-16.74-.09-.7-.72-1.38-1.22-1.98-2.68-3.21-6.08-6-3.75-11.1,1.52-3.34,2.32-7.01,3.72-11.39-7.52,.93-10.93-2.21-12.55-7.65-1.58-5.31-6.65-10.11-4.03-15.98,2.21-4.95,1.23-9.01-.36-12.55-3.13-1.24-5.93-1.82-8.1-3.31-4.16-2.87-8-6.21-11.89-9.46-1.33-1.12-3.21-2.42-3.44-3.86-.57-3.65-2.94-4.67-5.87-5.37-2.85-.68-6.11-2.57-8.45-1.77-5.04,1.72-7.79-.68-10.83-3.66-.77-.76-2.63-1.68-3.01-1.36-4.34,3.62-9.63,2.15-14.42,3.17-4.55,.96-6.81-.95-8.91-4.01-1.59-2.31-9.58-5.46-12.01-4.31-.61,.29-.88,1.39-1.2,2.16-2.26,5.38-7.56,7.35-12.9,4.89-1.28-.59-2.82-1.24-4.12-1.04-6.35,.94-12.54,4.04-19.11,1.02-.34-.16-1.02,.03-1.36,.3-5.92,4.68-10.87,3.23-15.61-3.55-1.77,6.55-5.49,9.81-11.5,8.94-3.21-.47-6.23-2.18-9.43-2.7-1.81-.29-4.45,.04-5.65,1.2-4.72,4.6-8.57,5.12-14.17,1.17-4.02,4.36-7.79,4.83-13.03,1.62-4.04-2.47-10.23-1.31-13.56,1.93-1.51,1.47-3.94,2.62-6.04,2.76-5.66,.38-11.35-2.67-17.06,.11-.51,.25-1.53,.17-1.92-.19-3.22-2.95-5.53-.11-8.51,.67-5.88,1.52-11.98,3.98-17.42,4.52-5.48,.54-12.66,3.88-18.34-1.28-.32-.29-1.66,.41-2.45,.8-5.46,2.72-10.67,.66-13.28-6.13-2.65,.71-5.42,1.53-8.23,2.15-1.41,.31-3.36,.9-4.29,.25-4.8-3.35-7.75,.61-10.42,2.92-5.48,4.75-10.06,4.74-14.83-1.07-4.93,6.25-10.54,6.11-15.39-.28-.81-1.07-2.09-1.78-3.43-2.87-2.22,7.23-6.98,9.62-12.97,7.07-2.49-1.06-4.69-3.04-7.25-3.66-1.91-.46-4.83-.13-6.18,1.08-3.48,3.13-6.72,6.19-11.87,5.17-4.35-.86-8.69-1.82-13.03-2.73-1.07-.23-2.17-.35-3.21-.68-3.92-1.21-6.26,1.9-9.15,3.37-3.49,1.77-6.3,.89-8.96-1.55-2.2-2.01-4.43-3.98-6.65-5.97-.04,.66-.08,1.31-.12,1.97-3.14,1.16-6.43,3.51-9.37,3.13-2.89-.38-5.42-3.53-7.84-5.27-4.11,.83-8.56,2.14-13.09,2.51-4.61,.38-9.37,.28-13.93-.46-3.17-.51-5.79-2.91-9.29,.03-1.45,1.22-5.92,1.38-6.87,.24-4.18-5.04-9.43-1.87-14.08-2.59-.91-.14-2.42,.78-2.97,1.64-2.35,3.65-5.76,4.25-9.74,4.3-5.79,.06-11.56,.71-17.35,.85-5.02,.13-10.65,1.29-14.91-.54-4.77-2.05-8.8-.58-12.63,.26-7.23,1.59-8.38,1.84-13.01-4.36-4.76,4.1-10.31,6.35-16.15,3.31-3.26-1.7-5.27-.94-8.08,.36-3.66,1.69-7.28,2.3-10.61-1.62-1.17-1.37-4.61-1.91-6.56-1.32-10.12,3.04-19.13-.2-23.94-8.78-1.32,1.17-2.61,2.51-4.1,3.59-1.7,1.24-3.84,1.97-5.31,3.42-4.14,4.07-9.22,4.07-13.43-.25-.59-.6-1.57-1.53-2.09-1.37-3.44,1.06-7.81-2.5-10.61,2.22-.4,.68-2.65,.75-3.82,.4-5.39-1.63-11.95,2.25-16.51-3.5-.25-.32-1.76,.23-2.62,.55-6.34,2.37-12.39,2.74-17.92-2.12-2.09-1.83-4.45-3.37-7.08-5.33,.79,5.71-3.07,8.37-6.82,8.75-6.02,.61-12.91,1.53-16.35-5.67-4.11,2.59-7.21,6.23-12.64,4.35-5.12-1.78-5.86-5.85-6.14-9.91-5.46,2.98-10.62,7.92-15.92,8.09-5.45,.17-11.04-4.34-16.89-6.94-.02,.03-1,1.07-1.56,2.29-1.64,3.59-4.57,4.25-8.13,4.29-5.46,.06-10.94,.88-16.38,.63-7.87-.36-16.11,5.12-23.35-1.74-3.72,5.43-14.56,7.14-19.9,3.47-3.26-2.24-10.91-2.07-12.13,.27-2.67,5.12-6.66,6.29-12.06,4.56-2.77-.89-6.3-1.13-9-.23-7.73,2.6-10.56,1.97-14.37-4.08-5.03,1.42-9.89,2.54-14.55,4.2-3.29,1.17-5.78,.51-8.83-.97-2.15-1.05-5.77-1.21-7.77-.07-5.17,2.97-9.27,2.38-13.04-1.93-7.44,7.67-15.18,2.31-22.77,.95-1.88,5.06-11.46,8.76-15.39,7.82-4.18-1-8.25-2.75-12.48-3.23-4.69-.54-9.81-1.01-14.19,.31-5.06,1.52-8.75,.84-12.25-2.64-6.66,6.25-10.29,5.97-16.12-1.16-3.58,2.35-7.05,4.05-11.47,1.43-1.14-.68-3.66,.37-5.26,1.18-5.53,2.81-9.57,2.18-13.09-2.77-1.08-1.52-1.37-3.59-2.16-5.82-3.28,5.25-8.24,2.78-12.53,2.51-6.07-.39-3.69-7.01-6.24-10.33-.35,6.62-4.34,10.74-9.67,11.21-5.28,.46-11.62-.07-14.41-6.7-3.75,7.52-10.88,8.13-17.16,2.4-9.39,3.61-18.24,.96-22.05-6.79-6.12,5.35-12.73,6.38-19.86,2.09-4.05,3.95-9.04,4.58-13.7,1.36-2.25-1.55-4.25-2.64-6.5-.41-3.02,2.99-6.64,4.76-10.46,2.52-2.91-1.7-5.07-4.69-7.83-7.36-.78,.66-2.91,1.87-4.2,3.67-3.87,5.4-8.72,7.1-14.89,4.89-.8-.29-2.07-.23-2.75,.22-6.98,4.62-14.21,.16-21.29,.66-.83,.06-1.84-.64-2.56-1.24-2.66-2.2-4.97-1.37-7.95-.2-5.56,2.19-11.43,4.47-17.29,4.82-5.7,.33-12.09,4.32-17.67-1.75-3.47,4.3-7.61,5.53-12.55,2.75-.53-.3-1.46,.1-2.2,.21-6.43,1.01-13.06,4-18.81-1.89-.22-.23-.86,0-1.29-.09-2.99-.59-6.26-.64-8.91-1.94-4.85-2.39-8.46-1.55-11.88,2.42-3.75,4.35-6.45,4.5-11.53,1.64-3.04-1.71-6.25-3.17-9.52-4.35-.86-.31-2.56,.56-3.35,1.38-6.41,6.71-12.41,5.74-15.61-2.15-2.66,.36-5.2,1.15-7.65,.93-4.72-.44-9.38-1.9-14.09-2.03-2.08-.06-4.13,2.35-6.37,3.16-2.69,.97-5.53,1.56-8.35,2.1-3.51,.67-7.06,1.55-10.59,1.56-3.09,0-7.75-.05-8.96-1.89-3.17-4.84-7.27-3.56-11.33-3.46-2.7,.07-5.4,.44-8.07,.87-4.01,.65-8.01,1.35-11.97,2.25-4.82,1.11-9.54,3.01-14.41,3.45-2.02,.18-5.68-2.1-6.22-3.96-1.61-5.49-5.07-4.08-8.9-3.97-3.66,.1-7.35-1.02-11.53-1.69-6.7,6.77-9.83,7.29-16.34,1.86-3.65,3.13-7.57,3.68-12,1.14-1.15-.66-3.53-.34-4.73,.46-3.99,2.64-7.06,.75-10.42-1.24-1.84-1.09-4.07-2.21-6.08-2.15-2.47,.07-5.33,.78-7.26,2.23-7.41,5.56-14.42,1.99-21.21-.77-6.01-2.44-8.32-2.38-12.88,2.48-.83,.89-2.12,1.69-3.29,1.85-3.66,.49-7.37,.97-11.04,.84-2.86-.1-6.2-.39-8.37-1.94-2.18-1.55-3.17-4.75-5.09-7.9-1.28,1.59-2.51,3.55-4.14,5.06-1.68,1.55-3.64,3.52-5.69,3.81-4.16,.59-8.47-.01-12.71,.21-4.85,.26-9.02-.32-10.29-6.07-2.55,0-4.83,.06-7.11-.02-2.25-.07-4.5-.28-6.86-.43-5.11,7.48-11.61,6.61-16.52-1.96-2.52-.19-4.71-.47-6.9-.49-1.27-.01-3.18-.08-3.73,.67-4.22,5.75-8.9,5.09-13.9,1.1-4.02,6.58-9.09,9.21-15.15,5.55-2.2,2.56-3.89,4.76-5.83,6.71-2.09,2.09-4.88,3.6-6.55,5.95-4.42,6.22-6.95,7.23-14.49,4.11,2.85,7.97,3.57,15.05-4.71,16.91-2.35,4.5-3.26,9.18-5.88,10.51-3.34,1.7-5.28,4.19-7.65,6.57-.92,.93-1.77,2.08-2.89,2.62-3.89,1.88-5.03,4.62-3.4,8.66,2.04,5.08,1.07,9.44-2.9,13.43-1.09,1.09-1.4,3.71-1.02,5.4,1.69,7.62,4.08,15.1,5.51,22.77,.62,3.29,.41,7.33-1,10.27-1.93,3.99-1.94,7.06,.17,10.84,1.56,2.8,2.51,5.92,.51,9.43-1.24,2.18-2.4,6.07-1.32,7.6,3.62,5.14,3.49,9.36,.35,12.29,1.32,8.59,2.54,15.96,3.52,23.35,.15,1.16-.8,2.44-1.09,3.7-.25,1.1-.7,2.41-.35,3.35,1.72,4.6,2.44,9.11-.36,13.54-2.69,4.25-4.22,8.34-1.4,13.4,1.25,2.24,1.18,5.41,1.15,8.15-.04,3.5-.27,7.1-1.11,10.48-1.13,4.52-.4,8.76-.14,13.26,.46,7.95,3.08,15.95,.35,24.11-3.01,9,3.62,18.83-1.91,27.8-.22,.35-.12,1.03,.05,1.47,1.43,3.82,.73,8.14,3.56,11.79,1.19,1.53-.07,4.84,.1,7.32,.22,3.11,.09,6.5,1.33,9.22,1.61,3.52,2.27,6.54,.94,10.31-1.49,4.24-2.25,8.74-3.25,13.15-.09,.41,.24,1.04,.55,1.41,5.33,6.45,1.57,12.76-.09,19.18-.44,1.7-.32,5.05,.36,5.29,5.96,2.09,6.6,6.46,6.57,11.91-.04,6.79-1.08,9.02-5.57,10.51,1.93,2.2,5.29,4.48,6.29,7.53,1.32,4.01,.83,8.62,.98,12.98,.03,.71-.75,1.42-.96,2.19-.3,1.08-.98,2.59-.53,3.27,5.08,7.51-.67,16.09,2.41,23.81,.35,.88-1.35,2.47-1.84,3.82-.42,1.15-.87,2.53-.62,3.65,1.19,5.37,3.2,10.62,3.79,16.03,.59,5.34-.11,10.83-.34,16.25-.15,3.63,.34,7.55-.87,10.81-2.09,5.65-.54,10.56,2.19,14.97,3.76,6.1,3.43,9.66-2.21,13.89,3.28,7.57,2.3,15.12,1.13,22.67-.07,.47-.21,1.12-.55,1.34-6.05,4.02-3.55,9.25-1.7,14.03,2.55,6.61,.66,14.35-4.04,17.65,1.89,5.05,3.73,9.78,5.4,14.56,.44,1.26,.53,2.71,.5,4.06-.01,.74-.69,1.45-.91,2.22-.2,.7-.5,1.68-.19,2.16,3.56,5.47,1.64,10.26-1.67,14.94-1.77,2.5-1.42,4.66,.04,7.48,1.42,2.75,2.46,6.56,1.71,9.38-1.89,7.11-8.09,8.28-14.92,3.46-.72,3.98,.92,5.28,4.59,5.32,2.6,.03,5.92,1.06,7.63,2.86,5.28,5.57,2.93,11.04-6.32,14.85,.91,1.55,1.76,3.09,2.7,4.57,3.62,5.73,5.59,11.51,.81,17.64-.37,.48-.9,1.32-.72,1.66,2.16,4.16-1.23,6.42-3.35,8.65-2.24,2.36-2.68,3.87-.6,6.64,3.39,4.52,4.29,9.25-.71,13.64-.61,.54,0,2.34-.16,3.54-.77,5.81,2.58,12.65-4.43,16.61,3.01,4.56,3.35,8.53-.27,12.61-2.93,3.29-2.63,9.09,.49,12,3.53,3.29,2.41,6.75,1,10.45-.43,1.15-.76,2.77-.27,3.76,2.36,4.78,.03,8.1-2.94,11.46-1.06,1.2-2.29,2.79-2.34,4.23-.14,4.58-1.86,9.1,.25,13.82,1.23,2.74,1.28,6.1,1.47,9.2,.12,2.01,.28,5-.89,5.95-5.16,4.22-2.3,8.75-.25,12.34,2.16,3.8,.64,6.16-1.1,8.87-.86,1.34-2.16,2.39-3.25,3.56,7.12,7.37,4.61,15.17-5.26,18.13,3.18,1.54,7.42,2.48,9.92,5.09,3.26,3.4,1.45,7.88-.14,10.39,2.43,5.57,5.12,10,6.27,14.8,1.64,6.87-.5,14.59,5.34,20.56,1.15,1.17,1.38,4.16,.81,5.92-1.7,5.28-1.76,10.34,.13,15.5,7.58-1.78,17.59,5.19,20.22,13.58,2.69-.39,5.6-.16,7.88-1.25,7.59-3.61,9.19-3.48,15.44,2,3.18,2.79,6.61,4.38,10.82,1.21,1.68-1.26,4.23-1.95,6.36-1.88,4.95,.15,9.9,.84,14.83,1.45,1.92,.24,4.86,.26,5.5,1.4,2,3.59,5.47,2.73,8.3,3.69,2.28,.77,4.62,1.38,6.97,1.91,.76,.17,1.75,.05,2.44-.31,5.22-2.68,7.75-2.22,12.1,2.32,2.44,2.55,7.06,2.76,9.77,1.02,1.78-1.14,4.09-1.44,6.17-2.11Z"/>
</svg>