<?xml version="1.0" encoding="UTF-8"?>
<svg id="Layer_2" data-name="Layer 2" xmlns="http://www.w3.org/2000/svg" viewBox="0 0 192.6 193.84">
  <defs>
    <style>
      .cls-1 {
        fill: #fff;
      }
    </style>
  </defs>
  <path id="AntIsland_06" data-name="AntIsland 06" class="cls-1" d="M165.81,132.31c2.62,4.36,5.64,8.14,7.2,12.45,.87,2.39,.26,6.44-1.34,8.38-4.87,5.9-11.15,5.63-17.02,.1-4.2,2.64-8.49,5.14-12.54,8-1.55,1.09-2.5,3.02-3.75,4.55-6.93,8.44-13.41,17.46-26.19,17.16-1.55-.04-3.06,2.05-4.75,2.74-4.44,1.82-8.95,3.5-13.49,5.07-1.21,.42-2.77-.09-3.92,.4-12.09,5.11-23.57,2.51-33.49-4.58-4.91-3.51-8.79-4.14-14.55-4.13-12.03,0-21.38-9.12-21.14-22.3,.04-2.17,.24-4.37-.08-6.48-.18-1.18-1.05-2.55-2.03-3.25-4.9-3.5-7.87-7.69-8.2-14.13-.21-4.01-3.06-7.82-3.61-11.88-.56-4.12,.35-8.42,.37-12.65,0-1.43-.29-3.42-1.24-4.21-6.63-5.55-8.4-12.87-2.18-20.16,2.72-3.19,2.99-5.17-.62-7.99-3.43-2.68-3.16-6.68-1.06-10.31,2.11-3.64,3.96-7.6,6.78-10.62,2.86-3.07,6.75-5.18,10.23-7.66,1.2-.86,3.07-1.29,3.67-2.43,4.55-8.63,11.34-13.02,21.31-12.79,2.37,.05,5.59-1.26,7.02-3.06,3.9-4.91,8.99-6.72,14.71-6.63,6.92,.12,12.69-.59,15.14-8.55,.61-1.97,3.56-3.22,5.44-4.78,1.49-1.24,3.51-2.15,4.41-3.72,2.73-4.75,6.64-4.79,11.09-3.48,3.68,1.09,6.46,1.01,10.12-1.73,3.58-2.68,9.31-3.98,13.87-3.54,6.66,.65,13.59,2.5,19.49,5.58,3.93,2.05,6.19,7.2,9.37,10.82,1.43,1.63,3.1,3.86,4.96,4.2,9.02,1.64,15.96,5.68,19.24,14.64,.52,1.41,.59,2.98,.88,4.48,.22,1.12,.17,2.41,.74,3.31,2.5,3.97,5.18,7.83,7.79,11.73,5.76,8.61,5.45,15.7-.18,24.94-1.15,1.89-.63,5.28,.04,7.72,2.35,8.52,3.17,16.41-3.77,23.65-1.73,1.8-1.48,5.77-1.63,8.76-.28,5.42-2.98,9.44-7.53,11.57-2.64,1.23-6.14,.59-9.52,.82Z"/>
</svg>