<?xml version="1.0" encoding="UTF-8"?>
<svg id="Layer_2" data-name="Layer 2" xmlns="http://www.w3.org/2000/svg" viewBox="0 0 339.88 296.93">
  <defs>
    <style>
      .cls-1 {
        fill: #fff;
      }
    </style>
  </defs>
  <path id="AntIsland_02" data-name="AntIsland 02" class="cls-1" d="M57.88,26.66c.21-6.37,2.52-10.09,7.83-11.73,1.19-.37,2.25-1.37,3.22-2.24,5.64-5.02,11.42-3.74,14.1,2.55,3.31-.17,6.39-.32,10.34-.52,5.19-7.35,11.73-10.03,18.9-6.92,6.91,3,13.47,13.58,12.63,18.59,5.81,2.65,11.28,5.15,16.58,7.57-.62-5.04,3.4-7.37,8.39-8.84,.62-.18,1.75-.22,1.8-.49,1.95-9.44,10.54-7.52,16.65-9.78,.45-.17,1.33-.19,1.36-.37,.8-5.75,5.66-5.94,9.75-7.28,4.92-1.61,9.68-3.92,14.72-4.92,3.69-.73,7.4-.5,11.23-1.91,5.45-2.01,10.49,4.73,8.91,11.85,3.49-4.06,8.08-5.92,12.12-3.7,5.92,3.25,11.03,7.95,17.37,12.7,3.3-1.45,7.56,.25,9.4,4.64,1.58,3.77,1.25,8.35,1.76,12.52,2.49,.14,4.62,.27,7.15,.41-.63-1.79-1.47-3.38-1.7-5.05-.58-4.12,.01-7.88,4.45-9.76,3.6-1.52,6.4-.75,9.91,1.45,4.05,2.54,9.35,4.46,14.04,4.33,7.26-.2,12.14,2.93,10.68,10.94,4.44,4.65,8.43,8.88,12.5,13.04,.6,.62,1.5,.99,2.32,1.34,6.27,2.66,12.19,5.52,13.91,13.16,1.07,4.74,5.13,9.05,1.42,14.38-.33,.47,1.23,2.6,2.26,3.61,4.87,4.77,4.1,11.7,6.73,17.32,.79,1.7,.68,3.8,1.06,5.7,1.03,5.15-1.87,9.39-7.45,10.81-6.7,1.7-7.75,3.74-4.97,9.7,3.26,7-3.16,15.98-11.01,16.92-4.14,.5-7.97,3.54-11.89,5.85,4.77,.23,8.26,2.02,9.41,6.63,1.05,4.21-1.26,7.19-4.25,9.87-3.93,3.53-3.79,5.66,.52,11.5,.93,1.26,2.04,2.4,3.11,3.55,3.89,4.2,3.17,10.01-1.63,13.08-1.21,.77-2.42,1.53-3.84,2.43,3.77,2.2,6.78,4.64,5.8,9.22-.91,4.23-3.08,7.23-8.01,7.48-.84,.04-1.53,2.03-2.38,3.04-1.53,1.83-2.96,4.9-4.74,5.13-4.06,.54-4.99,2.95-6.52,6-1.17,2.34-4.07,3.84-6.27,5.63-.61,.49-1.61,.54-2.15,1.07-3.07,3.04-5.99,6.24-9.1,9.25-1.29,1.25-2.82,2.83-4.42,3.08-7.44,1.16-8.81,6.2-8.97,12.51-.04,1.63-1.31,3.24-2.04,4.84-1.03,2.27-2.13,4.51-3.13,6.8-1.49,3.39-3.17,6.33-7.56,6.63-1.22,.08-3.32,1.73-3.33,2.67-.04,6.08-4.54,9.1-8.87,9.76-5.69,.87-11.76-.64-17.65-1.19-.31-.03-.81-.9-.82-.9-5.44,4.48-11.99,1.13-17.83,2.59-1.03,.26-1.87,1.19-2.86,1.71-1.44,.75-3.45,2.39-4.33,1.93-4.96-2.58-10.25-1.03-15.25-1.89-2-.34-4.46-2.58-5.23-4.54-1.54-3.91-4.25-5.01-7.9-5.19-6.14-.3-9.38-4.39-8.06-11.04-9.25,1.59-11.27-4.61-12.22-11.68-11.68,2.4-20.76-11.54-17.14-25.11-2.89-1.43-6.27-2.21-8.33-4.29-4.71-4.74-1.74-10.01,1.37-13.75,3.16-3.8,3.14-6.88,1.08-10.94-1.82,3.53-2.76,8.24-5.56,9.97-2.71,1.68-7.7,1.3-11.01,.03-4.84-1.86-5.03-6.94-1.03-16.04-2.79,1.11-4.9,1.51-6.44,2.65-5.29,3.92-8.62,3.87-13.66-.32-.83-.69-2.37-.63-3.59-.68-1.88-.07-4.29,.83-5.57-.03-4.46-3-9.13-5.38-12.29-10.63-2.23-3.69-4.56-8.88-11.24-9.62-5.49-.61-11.83-1.85-15.68-7.57-1.66-2.47-4.85-3.84-6.99-6.06-1.32-1.37-1.57-3.88-2.99-5.02-3.56-2.85-7.49-5.24-11.3-7.77-5.16-3.42-8.55-8.05-9.62-14.18-1.04-5.99-1.25-12.21-3.01-17.97-1.48-4.85-.88-9.22,1.24-13.1,4.18-7.64,9.16-14.83,13.7-22.27,.92-1.5,1.91-3.29,1.92-4.95,.02-6.49,1.37-13.06-1.42-19.43-1.74-3.98,.16-7.53,4.44-9.6,5.82-2.82,9.03-8.41,13.57-12.57,3.83-3.5,5.66-8,8.42-12.03,3.56-5.19,8.34-7.72,15.17-4.57Z"/>
</svg>