<?xml version="1.0" encoding="UTF-8"?>
<svg id="Layer_2" data-name="Layer 2" xmlns="http://www.w3.org/2000/svg" viewBox="0 0 221 136.44">
  <defs>
    <style>
      .cls-1 {
        fill: #fff;
      }
    </style>
  </defs>
  <path id="AntIsland_08" data-name="AntIsland 08" class="cls-1" d="M56.34,120.23c-9.98,4.44-18.75,2.27-25.54-5.11-4.79-5.2-7.57-11.94-5.31-19.02-5.55-2.9-11.22-5.42-16.37-8.75-2.37-1.53-4.18-4.45-5.4-7.12-1.61-3.55-2.49-7.44-3.5-11.24-1.06-4.02,1.82-9.43,5.61-10.91,3.47-1.35,4.69-5.27,4.31-8.95-.3-2.84,.32-6.63,2.08-8.62,2.62-2.96,6.61-2.04,10.48,1.45,1.13-2.59,2.19-5,3.35-7.65-1.01-.56-1.79-1.2-2.68-1.45-4.83-1.32-7.15-4.92-6.39-10.07,.53-3.6,4.5-5.76,8.93-5.95,5.73-.25,11.44-1.21,17.14-2,.63-.09,1.31-.97,1.67-1.65,2.77-5.11,7.25-5.4,11.93-3.81,4.86,1.66,8.72,2.27,13.8-.97,8.26-5.27,17.5-1.1,21.03,7.13,1.98-1.3,4.1-2.44,5.87-3.98,.83-.72,1.43-2.23,1.4-3.36C98.61,3.57,101.29-.09,105.88,0c5.47,.1,10.92,1.1,16.39,1.44,5.08,.31,5.82,4.51,7.42,8.52,6.65-4.72,13.44-2.63,20.14-1.66,3.38,.49,6.53,1.52,9.81-1.1,1.3-1.04,4.1-.47,6.17-.22,3.84,.47,7.62,1.5,11.47,1.85,6.94,.64,11.58,4.53,15.62,9.78,1.39,1.81,3.44,3.27,5.46,4.4,5.47,3.04,11.64,6.95,10.82,13.23-.89,6.8-.45,12.86,1.57,19.11,.1,.3,.04,.65,.07,.98,2.1,.77,4.4,1.21,6.24,2.37,4.08,2.57,5.29,8.45,2.23,12.08-2.85,3.38-6.49,6.07-9.63,9.23-3.55,3.57-3.58,8.26-3.81,12.89-.27,5.57-2.18,10.25-6.95,13.73-1.8,1.31-3.38,3.69-3.88,5.85-1.03,4.41-4.07,6.7-7.82,7.12-3.62,.41-7.24-1.32-8.46-5.36-1.24-4.12-2.75-3.53-4.73-.65-5.14,7.43-11.06,12.07-21.19,9.63-4.52-1.09-9.92,.53-14.72,1.73-5.71,1.42-10.98,1.62-16.15-1.57-1.11-.68-2.66-1.18-3.9-1.01-4.97,.68-10.07,2.87-14.8,2.21-5.64-.78-7.51,3.36-9.83,5.89-9.06,9.93-26.49,6.53-32.41-3.72-1.29-2.24-3-4.23-4.67-6.55Z"/>
</svg>