<?xml version="1.0" encoding="UTF-8"?>
<svg id="Layer_2" data-name="Layer 2" xmlns="http://www.w3.org/2000/svg" viewBox="0 0 251.25 196.59">
  <defs>
    <style>
      .cls-1 {
        fill: #fff;
      }
    </style>
  </defs>
  <path id="AntIsland_05" data-name="AntIsland 05" class="cls-1" d="M122.13,6.62c3.79-4.38,7.85-4.01,12.16-1.56,.67,.38,1.81,.59,2.44,.28,5.57-2.73,9.7-.74,13.34,4.16,4.11-4.56,8.74-5.71,13.89-1.85,.26,.2,.66,.51,.87,.43,4.29-1.57,7.92,1.04,11.69,1.54,5.16,.67,8.33,3.67,11.16,6.29,4.68,4.34,9.24,4.45,14.63,3.15,7.91-1.91,10.42-.17,11.96,7.83,.18,.93,1.53,1.96,2.56,2.35,10.92,4.21,14.06,12.65,8.16,22.65-1.63,2.77-.66,3.96,2.02,4.52,4.4,.93,6.66,3.91,7.53,8.04,.28,1.33-.12,2.8-.25,4.82,6.41,5.22,6.63,7.35,1.96,14.96-.75,1.22,.37,3.75,.94,5.57,.84,2.71,1.89,5.36,2.98,7.99,.89,2.16,2.2,4.17,2.9,6.38,1.06,3.33,1.71,6.79,2.59,10.18,.81,3.11,1.12,6.5,2.63,9.24,5.64,10.24,2.97,24.4-6,31.72-1.41,1.15-1.57,3.9-2.2,5.95-1.89,6.08-5.45,10.6-11.05,13.91-4.06,2.4-7.78,5.59-11.1,8.97-5.92,6.04-10.5,7.24-18.39,4.45-1.41-.5-3.85-.06-4.96,.92-9.7,8.52-17.44,9.26-28.67,2.68-1.41-.83-3.5-.53-5.28-.68-.25-.02-.51,.42-.81,.52-3.47,1.09-31.37-.76-34.46-2.81-4.07-2.69-7.64-6.11-11.57-9.02-4.27-3.16-7.17-7.3-13.72-8.33-13.82-2.17-26.12-8.62-29.79-23.82-1.61-6.68-3.24-13.9-.39-21.2-1.16-.7-2.54-1.53-4.12-2.48-3.52,3.52-7.42,5.62-12.22,2.39-.8-.54-1.92-1.21-2.08-2-.93-4.42-4.22-4.57-7.64-4.45-13.36,.48-23.27-6.16-30.37-16.47-4.48-6.49-7.47-14.11-9.37-22.05-1.36-5.69-3.98-11.02-.39-16.89,.56-.92-1.07-3.25-1.79-4.88-5.5-12.38,1.59-24.5,12.45-28.75,1.43-.56,3.4-2.28,3.42-3.48,.04-3.77,2.41-5.09,5.1-6.52,.88-.47,1.92-1.37,2.14-2.26,1.69-6.75,8.72-10.3,15.38-9.63,3.83,.38,6.4-1,9.25-3.15,7.5-5.65,17.67-7.35,25.84-.2,2.31,2.02,4.68,3.02,8.21,2.49,7-1.04,14.06,.11,20.35-5.3,6.32-5.44,12.53-3.81,18.07,3.39Z"/>
</svg>