<?xml version="1.0" encoding="UTF-8"?>
<svg id="Layer_2" data-name="Layer 2" xmlns="http://www.w3.org/2000/svg" viewBox="0 0 390.71 265.31">
  <defs>
    <style>
      .cls-1 {
        fill: #fff;
      }
    </style>
  </defs>
  <path id="AntIsland_03" data-name="AntIsland 03" class="cls-1" d="M350.37,125.6c-3.94,1.95-6.48,3.08-3.05,8.14,3.37,4.98-2.3,10.85-9.5,11.25-4.1,9.77-8.05,19.36-12.18,28.86-.82,1.88-1.98,4.17-3.63,5.01-4.13,2.11-5.32,5.48-6.18,9.62-1.8,8.64-7.71,13.41-15.95,15.75-1.23,.35-2.64,1.12-3.33,2.12-2.15,3.14-3.89,6.55-5.97,9.75-2.98,4.58-5.53,9.63-9.3,13.48-7.5,7.66-16.59,13.11-27.22,15.5-1.18,.26-2.55-.46-3.84-.59-1.3-.13-2.98-.63-3.88-.04-9.56,6.26-21.5,4.66-31.41,9.69-1.3,.66-3.16,.6-4.12,1.53-4.75,4.6-10.09,5.79-16.3,3.61-.56-.2-1.6,.21-2.08,.68-7.23,7.14-16.25,5.3-24.81,4.62-6.97-.56-13.97-1.78-20.73-3.58-3.42-.91-6.74-3.34-9.3-5.89-1.94-1.93-3.13-2.28-5.41-1.11-6.59,3.37-13.32,4.57-20.3,.94-.86-.45-2.3-.54-3.15-.13-7.15,3.45-14.21,3.57-21.31-.1-.84-.43-1.84-1.02-2.69-.92-5.25,.67-10.46,1.77-15.72,2.26-7.45,.69-13.77-1.88-18.92-7.41-1.11-1.19-2.66-2.21-4.2-2.68-5.69-1.75-11.02-3.88-14.48-9.2-.61-.93-2.13-1.35-3.3-1.8-8.91-3.42-13.38-10.72-16.48-19.08-2.28-6.14-4.11-12.43-6.21-18.64-.18-.53-.9-.85-1.25-1.35-5.97-8.68-5.49-18.95,1.01-27.62,.73-.98,.95-3.24,.32-4.2-4.47-6.87-3.66-15.53,4.68-21.34,.81-.57,1.89-1.07,2.29-1.88,4.27-8.76,4.73-9.08,12.94-7.7,.66-2.77,4.58-4.48,1.74-8.62-.81-1.19,.97-5.24,2.65-6.86,5.33-5.12,10.79-10.55,19.2-8.4,2.86-7.96,5.67-9.17,13.59-6.83,1.3,.38,3.36-.55,4.6-1.49,6.77-5.14,7.09-6.19,15.18-1.83,.99,.53,2.74,.32,3.84-.19,2.23-1.02,4.26-2.47,6.35-3.77,.66-.41,1.84-.97,1.8-1.35-.67-5.97,5.07-7.74,7.68-11.46,3.09-4.4,6.55-4.32,13.5-.95,1.08-3.95,2.25-7.74,3.13-11.59,1.03-4.51,4.18-6.81,8.97-6.99,1.38-.05,3.24-1.49,3.96-2.8,3.79-6.87,15.6-15.02,23.28-10.87,1.84,1,3.56,2.23,5.36,3.32,1.34,.81,2.71,1.55,4.07,2.33,.98-2.15,2.89-4.35,2.76-6.43-.26-4.35,3.16-9.02,7.78-9.26,5.07-.27,8.22,2.37,8.85,7.53,.18,1.49,1.08,2.89,1.65,4.33,.49-.01,.99-.02,1.48-.03,.42-2.26,.5-4.65,1.34-6.74,1.12-2.75,2.37-5.72,4.42-7.73,2.28-2.23,5.8-3.13,8.27-5.21,5.02-4.21,9.19-9.09,10.29-15.98,.85-5.32,8.31-8.14,13.54-5,2.01,1.2,2.78,2.15,4.07-.87,2.41-5.62,6.76-6.51,12.56-4.46,2.57,.91,7.1,.97,8.58-.61,3.73-3.98,7.75-5.91,12-2.78,3.77,2.78,5.83,7.31,2.41,12.25,10.15,1.37,20.07-1.96,30.27,.05,3.45-6.54,3.92-6.52,13.02-4.51,1.87,.41,4.48-1.12,6.35-2.36,4.29-2.84,8.74-2.98,13.16-1.06,5.02,2.18,10.43,2.71,15,7.1,3.32,3.2,9.97,3.82,15.17,3.96,6.39,.16,10.66,4.01,9.41,10.33-.12,.61,.09,1.28,.06,1.02,3.64,0,7.34-.93,10.24,.21,5.01,1.96,5.88,8.31,2.4,12.76-1.91,2.44-3.22,4.7,.51,6.67,.28,.15,.57,.41,.71,.69,2.1,4.22,5,7.83,8.25,11.24,3.31,3.47,1.52,6.64-.49,10.24-2.69,4.8-4.97,9.94-6.52,15.21-.96,3.25,.14,7.06-.4,10.51-.38,2.43-1.36,5.45-3.14,6.81-3.01,2.32-4.35,4.86-4.26,8.47,.01,.57-.3,1.15-.51,1.71-2.54,6.93-9.14,10.1-14.09,14.69-2.38,2.21-6.37,.69-9.09-1.94Z"/>
</svg>