<?xml version="1.0" encoding="UTF-8"?>
<svg id="Layer_2" data-name="Layer 2" xmlns="http://www.w3.org/2000/svg" viewBox="0 0 143.84 126.54">
  <defs>
    <style>
      .cls-1 {
        fill: #fff;
      }
    </style>
  </defs>
  <path id="AntIsland_09" data-name="AntIsland 09" class="cls-1" d="M120.33,75.72c9.59,3.17,16.71,8.03,18.95,17.16,1.48,6.02,.2,12.35-3.35,17.41-3.65,5.21-9.39,8.85-15.72,8.67-5.77-.17-11.48-2.64-17.63-4.21-3.07,4.68-5.03,5.18-10.16,2.75-6.37,3.25-11.92,6.12-17.52,8.87-.64,.31-1.71,.19-2.41-.13-7.62-3.41-15.68-2.98-23.76-3.37-3.73-.18-7.32-3.3-10.99-5.05-1.71-.81-3.41-1.99-5.2-2.19-8.85-.99-13.99-6.32-18.04-13.77-4.49-8.26-2.1-16.28-.09-24.78-10.29-.26-13.66-8.25-14.33-15.52-.55-5.95,2.12-13.45,5.93-18.19,3.48-4.33,3.16-8.77,4.4-13.09,2.99-10.44,10.75-14.5,20.26-16.81,1.39-.34,3.12-1.05,3.82-2.15C41.56,.3,52.85-2.9,64.7,2.72c1.59,.76,4.06,1.07,5.57,.38,14.25-6.48,26.75-.38,30.54,15.04,.34,1.38,1.11,2.97,2.19,3.79,4.85,3.7,10.03,6.96,14.76,10.79,1.72,1.39,3.03,3.78,3.61,5.96,.74,2.79,1.06,4.93,4.46,6.17,6.07,2.2,7.09,6.07,4.23,12.24-.25,.54-.32,1.16-.8,3,4.24-4.89,8.8-4.68,12.01-1.79,2.02,1.82,2.61,6.03,2.56,9.14-.06,3.54-5.45,6.59-8.73,5.84-2.22-.51-4.57-1.49-6.69-1.15-2.41,.38-4.63,1.98-8.09,3.58Z"/>
</svg>