<?xml version="1.0" encoding="UTF-8"?>
<svg id="Layer_2" data-name="Layer 2" xmlns="http://www.w3.org/2000/svg" viewBox="0 0 382.54 369.92">
  <defs>
    <style>
      .cls-1 {
        fill: #fff;
      }
    </style>
  </defs>
  <path id="AntIsland_01" data-name="AntIsland 01" class="cls-1" d="M11.62,137.77c-3.36-10.75-4.73-22.77,4.13-33.8,.2-.25,.27-.74,.5-.82,7.37-2.58,8.95-10.38,13.59-15.42,2.53-2.74,3.91-7,4.69-10.8,1.7-8.38,8.36-15.94,16.5-18.14,1.86-.5,3.74-1.94,5.01-3.45,6.04-7.25,13.23-11.1,22.91-8.78,.96,.23,2.12-.31,3.18-.56,7.12-1.69,14.19-4.34,21.39-4.75,4.43-.25,9.41,2.34,13.51,4.73,4.56,2.66,8.67,2.64,13.58,1.57,6.77-1.47,13.74-2,20.54-2.93-1.6-6.91-.34-8.93,7.13-12.54,3.71-1.79,7.02-4.4,10.42-6.78,.56-.39,.8-1.45,.92-2.24,1-6.8,6.9-9.86,13.02-6.7,3.12,1.61,8.18-.15,8.97-3.55,1.03-4.44,3.61-6.54,7.95-7.47,6.08-1.31,12.06-3.09,18.08-4.68,.64-.17,1.56-.83,1.82-.62,7.35,6.02,17.66-1.61,24.92,5.45,1.15,1.12,4.22,1.18,6.02,.58,8.85-2.96,16.69,.37,23.93,4.33,6.5,3.56,12.43,8.06,19.23,11.34,3.82,1.85,6.12,6.83,9.14,10.38,1.11,1.3,2.07,3.05,3.51,3.69,8.19,3.67,13.04,9.54,15.03,18.51,.68,3.08,4.58,5.44,6.99,8.14,1.23,1.37,2.59,2.67,3.63,4.17,5.56,8.06,4.22,17.1,3.56,26.04-.1,1.36-.27,3.03,.38,4.07,2.73,4.39,3.43,8.86,2.5,14.01-.47,2.61,.91,5.54,1.34,8.35,.17,1.14,.31,2.41-.03,3.48-1.81,5.77-1.35,11.46-.44,17.37,1.04,6.71,1.06,13.57,1.58,20.36,.1,1.27,.03,3.02,.79,3.68,4.93,4.27,10.33,8.03,15.07,12.5,3.8,3.58,7.72,7.49,10.11,12.03,3.52,6.71,5.97,14.04,8.35,21.27,.74,2.25-.53,5.08-.32,7.59,.49,5.86,1.32,11.69,2.04,17.52,.06,.47,.53,.92,.48,1.35-.41,4.03-2.58,9.07-.92,11.82,2.13,3.55,4.39,6.86,5.6,10.91,2.09,7.02-1.48,12.82-3.71,18.95-1.24,3.41-2.26,6.89-3.39,10.34-.99,3.03-2.11,6.03-2.96,9.1-.34,1.22-.46,2.7-.11,3.89,2.5,8.47,3.57,16.85-2.08,24.52-1.7,2.31-3.9,4.61-6.39,5.89-3.39,1.75-5.06,4.54-6.53,7.64-4.35,9.18-10.89,13.79-21.02,12.42-6.18-.84-11.26,1.31-16.35,3.19-10.01,3.7-18.84,3.47-26.67-4.45-.56-.57-1.24-1.2-1.97-1.4-6.41-1.79-12.83-3.54-19.28-5.16-1.05-.26-2.63-.21-3.36,.41-5.27,4.43-10.91,7.01-17.96,4.78-.99-.31-2.4-.12-3.33,.38-6.71,3.56-13.41,7.15-19.97,10.96-4.96,2.88-10,2.51-15.13,.99-3.24-.96-6.36-2.35-9.62-3.25-.82-.23-2.34,.4-2.88,1.12-8.29,11.17-15.65,12.95-28.86,8.03-8.18-3.04-16.72-5.19-25.2-7.3-7.25-1.81-11.43-6.6-14.47-12.93-.56-1.16-1.3-2.59-2.35-3.1-8.85-4.36-10.46-6.08-12.97-14.12-4.81-.94-9.26-1.82-13.72-2.68-3.56-.69-6.29,.72-9.58,2.28-10.82,5.13-21.68,3.95-28.48-7.8-3.17-5.47-8.16-6.77-12-10.31-7.83-7.24-13.85-15.16-13.04-26.84,.37-5.33-3.22-9.48-6.95-13.27-2.29-2.33-4.97-5.04-5.66-8.01-1.11-4.73-3.85-8.03-7.25-10.63-5.5-4.21-7.42-9.78-7.98-16.21-.09-.99,.28-2.35-.24-2.93-4.87-5.43-5.54-12.54-7.9-18.98-2.6-7.11-3.06-13.82,1.46-20.43,1.56-2.28,1.43-4.67-.03-7.6-3.57-7.17-5.4-14.75-2.62-22.92,1.29-3.8,.78-8.27,2.27-11.95,1.87-4.61,4.96-8.72,8-13.84Z"/>
</svg>