<?xml version="1.0" encoding="UTF-8"?>
<svg id="Layer_2" data-name="Layer 2" xmlns="http://www.w3.org/2000/svg" viewBox="0 0 191.68 182.39">
  <defs>
    <style>
      .cls-1 {
        fill: #fff;
      }
    </style>
  </defs>
  <path id="AntIsland_07" data-name="AntIsland 07" class="cls-1" d="M127.72,28.74c2.3-2.86,5.12-3.76,8.94-2.63,5.33,1.59,6.83,5.18,6.07,10.18,7.51,3.18,13.23,7.56,15.24,15.88,.55,2.27,2.98,4.54,5.12,5.86,4.55,2.8,7.4,6.25,7.77,11.77,.32,4.73,1.97,8.74,5.79,12.22,5,4.55,4.29,12.49-.74,19.13,4.29,5.42,9.2,10.46,12.71,16.33,4.27,7.16,4.32,14.96-1.43,21.66-3.35,3.9-2.68,8.97-4.76,13.01-4.51,8.75-8.57,18.2-19.61,21.01-3.86,.98-8.26,4.04-11.36,3.01-7.89-2.64-14.19-.19-20.56,3.48-10.85,6.25-25.34,1.35-30.08-9.74-.86-2.02-3.64-3.3-5.67-4.74-7.56-5.36-15.44-10.24-18.49-19.97-1.51-4.81-4.21-9.25-6.37-13.86-.54-1.15-.81-2.56-1.65-3.41-1-1.01-2.66-2.36-3.73-2.13-9.28,1.96-18.71-.99-24.11-11.43-1.01-1.95-1.52-2.92-4.17-2.31-7.53,1.75-13.16-3.23-18.9-6.67-3.71-2.22-6.75-5.87-9.49-9.34-4.23-5.35-3.09-11.58-1.19-17.41,.89-2.74,.69-4.4-1.12-6.56-8.05-9.65-7.3-18.16-1.31-27.97,1.28-2.1,3.87-3.62,6.16-4.83,4.47-2.36,9.16-4.32,14.01-6.56-1.14-9.01,1.93-16.33,9.47-21.39,2.23-1.5,5-2.76,7.63-3,10.22-.95,20.47-1.68,30.73-2.03,5.36-.18,9.84-.53,15.08-3.59,11.75-6.87,26.42,.23,29.44,12.26,1.48,5.89,4.31,11,10.57,13.79Z"/>
</svg>