<?xml version="1.0" encoding="UTF-8"?>
<svg id="Layer_2" data-name="Layer 2" xmlns="http://www.w3.org/2000/svg" viewBox="0 0 335.57 271.29">
  <defs>
    <style>
      .cls-1 {
        fill: #fff;
      }
    </style>
  </defs>
  <path id="AntIsland_04" data-name="AntIsland 04" class="cls-1" d="M89.89,213.3c-5.19,2.75-9.56,3.03-12.94-2.44-.58-.95-2.62-1.2-4.04-1.39-7.47-1.02-11.51-4.56-13.53-12.05-.21-.77-.31-1.87-.84-2.2-3.97-2.43-7.98-4.81-12.09-7-3.76-2.01-6.73-4.27-6.2-9.22,.39-3.67-.19-7.53,.69-11.04,.88-3.5-.17-5.23-3.07-6.53-3.36-1.51-5.03-3.95-5.21-7.8-.18-3.94,.38-9.42-1.88-11.47-5.67-5.13-4.86-9.72-2.65-15.91,1.29-3.63-3.36-7.6-7.45-7.86-3.1-.2-6.44,.04-9.2-1.07-2.62-1.05-5.48-3.2-6.67-5.63-1.29-2.63-1.15-6.24,2.13-8.41,.82-.55,1.52-1.29,2.55-2.19-6.18-4.13-7.55-9.88-7.1-16.61,.14-2.06-1.61-4.18-2-6.37-1.98-11.07,3.98-21.93,15.32-25.36,2.81-.85,3.92-1.75,3.77-4.62-.06-1.18,.73-2.41,1.15-3.61,1.62-4.67,6.72-7.03,7.54-12.73,.33-2.34,5.81-3.94,9.76-6.39,1.7-3.37,3.22-8.9,6.73-12.51,2.67-2.75,7.8-3.29,11.94-4.37,2.51-.66,5.24-.74,7.86-.63,4.6,.19,7.17-3.16,10.64-5.18,8.2-4.78,15.3-3.76,22.75,7.3,4.6-1.25,8.36-.49,11.92,3.29,1.76,1.87,5.27,2.94,7.98,2.93,9.14-.02,14.86,4.97,19.6,11.91,.66,.97,1.81,1.6,2.62,2.49,1.24,1.38,2.85,2.66,3.48,4.31,1.63,4.24,2.59,8.74,4.28,12.95,.8,1.99,2.76,3.49,4.01,5.34,1.59,2.35,3,4.82,4.42,7.13,6.25-6.54,9.58-6.97,17.59-2.42,1.62,.92,4.02,.53,5.58,1.5,4.06,2.54,8.39,5.02,11.54,8.5,1.91,2.1,1.81,6.02,2.59,9,11.22-7.33,21.18-5.81,24.65,5.16,1.91-2.25,3.89-3.81,4.84-5.85,1.95-4.2,10.41-5.9,15.87-3.7,5.07,2.04,10.23,1.44,15.16,2.87,6.07,1.76,12.2,3.6,14.47,10.48,.56,1.71,.08,3.73,.31,5.58,.19,1.5,.72,2.96,1.1,4.44,1.1-.4,2.3-.64,3.27-1.24,3.72-2.29,8.79-1.56,11.27,2.1,1.44,2.12,2.56,2.91,5.14,1.72,3.63-1.67,7.13-.1,8.97,2.86,1.33,2.14,1.22,5.38,1.16,8.12-.05,2.14-1,4.27-1.69,6.92,11.72-4.82,21.15-1.62,30.15,4.9,10.16,7.36,8.37,19.08,3.94,26.8-1.33,2.32-3.37,4.23-4.68,5.84,1.65,2.48,4.29,4.86,4.78,7.63,.44,2.5-.93,5.77-2.45,8.08-5.08,7.72-7.2,16.62-10.68,24.98-.37,.89,.2,2.18,.34,3.29,1.17,9.24-1.98,16.51-9.63,21.96-.99,.7-1.42,2.83-1.36,4.26,.26,6.3-1.7,12.01-5.83,16.39-4.19,4.45-9.17,8.29-14.24,11.75-4.5,3.07-9.69,4.6-15.39,3.24-2.36-.56-4.26,.04-5.56,2.73-3.56,7.35-13.95,12.35-22.28,10.49-3.03-.68-6.68,1.09-9.98,1.97-6.19,1.65-11.24-.28-16.25-3.97-2.15-1.58-5.84-2.72-8.25-2.03-12.01,3.44-21.6-4.12-26.32-12.91-10.46,2.48-18.29-2.22-25.46-9.33-4.71-4.67-10.22-7-17.45-6.41-3.51,.29-7.35-3.33-11.02-5.2-2.21-1.12-4.39-2.31-6.61-3.4-.57-.28-1.53-.05-1.89-.44-6.35-6.97-14.23-5.92-22.52-5.18-4.71,.42-8.23-3.34-9.41-8.52Z"/>
</svg>